<svg width="373" height="61" viewBox="0 0 373 61" fill="none" xmlns="http://www.w3.org/2000/svg">
<g clip-path="url(#clip0_1021_786)">
<path d="M116.35 5.93628H96.2869V10.9522H111.017C113.984 10.9522 116.35 13.3542 116.35 16.286V20.6661C116.35 23.6332 113.984 25.9998 111.017 25.9998H91.271V20.984H111.335V15.9681H96.6048C93.6376 15.9681 91.271 13.5661 91.271 10.6343V6.25419C91.271 3.28705 93.6376 0.92041 96.6048 0.92041H116.35V5.93628Z" fill="black"/>
<path d="M140.672 0.92041C143.639 0.92041 146.041 3.28705 146.041 6.25419V20.6661C146.041 23.6332 143.639 25.9998 140.672 25.9998H125.236C122.269 25.9998 119.902 23.6332 119.902 20.6661V6.25419C119.902 3.28705 122.269 0.92041 125.236 0.92041H140.672ZM140.99 5.93628H124.918V20.984H140.99V5.93628Z" fill="black"/>
<path d="M154.972 20.8073H174.541V26.2118H153.03C151.122 26.2118 149.568 24.6576 149.568 22.7501V0.708496H154.972V20.8073Z" fill="black"/>
<path d="M199.855 0.92041C202.257 0.92041 204.2 2.82785 204.2 5.22982V25.9998H199.149V17.7696H183.077V25.9998H178.061V5.22982C178.061 2.82785 179.968 0.92041 182.37 0.92041H199.855ZM199.149 5.93628H183.077V12.7537H199.149V5.93628Z" fill="black"/>
<path d="M228.815 0.92041H233.866V22.7501C233.866 24.5516 232.382 25.9998 230.581 25.9998H226.695C225.459 26.0352 224.364 25.364 223.799 24.269L214.05 5.93628H212.743V25.9998H207.727V4.20545C207.727 2.36865 209.175 0.92041 210.976 0.92041H215.074C216.275 0.92041 217.405 1.55622 217.97 2.65124L227.72 20.984H228.815V0.92041Z" fill="black"/>
<path d="M259.187 0.92041C261.589 0.92041 263.532 2.82785 263.532 5.22982V25.9998H258.48V17.7696H242.408V25.9998H237.393V5.22982C237.393 2.82785 239.3 0.92041 241.702 0.92041H259.187ZM258.48 5.93628H242.408V12.7537H258.48V5.93628Z" fill="black"/>
<path d="M115.856 38.9362H96.2869V43.9521H115.856V48.968H96.2869V58.9997H91.271V33.9204H115.856V38.9362Z" fill="black"/>
<path d="M140.155 33.9204C143.122 33.9204 145.524 36.287 145.524 39.2541V53.666C145.524 56.6331 143.122 58.9997 140.155 58.9997H124.718C121.751 58.9997 119.385 56.6331 119.385 53.666V39.2541C119.385 36.287 121.751 33.9204 124.718 33.9204H140.155ZM140.472 38.9362H124.4V53.9839H140.472V38.9362Z" fill="black"/>
<path d="M170.138 33.9204H175.19V50.5928C175.154 55.2555 171.41 58.9997 166.747 58.9997H157.457C152.795 58.9997 149.05 55.2555 149.05 50.5928V33.9204H154.066V49.5685C154.066 52.0058 156.044 53.9839 158.482 53.9839H165.723C168.16 53.9839 170.138 52.0058 170.138 49.5685V33.9204Z" fill="black"/>
<path d="M199.804 33.9204H204.855V55.75C204.855 57.5515 203.372 58.9997 201.57 58.9997H197.685C196.448 59.0351 195.353 58.3639 194.788 57.2689L185.039 38.9362H183.732V58.9997H178.716V37.2054C178.716 35.3686 180.165 33.9204 181.966 33.9204H186.064C187.264 33.9204 188.395 34.5562 188.96 35.6512L198.709 53.9839H199.804V33.9204Z" fill="black"/>
<path d="M226.079 33.9204C230.742 33.9204 234.486 37.6999 234.521 42.3272V50.5928C234.486 55.2555 230.742 58.9997 226.079 58.9997H208.382V33.9204H226.079ZM229.47 43.3869C229.47 40.9143 227.492 38.9362 225.055 38.9362H213.398V53.9839H225.055C227.492 53.9839 229.47 52.0058 229.47 49.5685V43.3869Z" fill="black"/>
<path d="M259.842 33.9204C262.244 33.9204 264.187 35.8278 264.187 38.2298V58.9997H259.136V50.7695H243.064V58.9997H238.048V38.2298C238.048 35.8278 239.955 33.9204 242.357 33.9204H259.842ZM259.136 38.9362H243.064V45.7536H259.136V38.9362Z" fill="black"/>
<path d="M267.714 33.9204H292.793V38.9362H282.762V58.9997H277.746V38.9362H267.714V33.9204Z" fill="black"/>
<path d="M301.361 58.9997H296.345V33.9204H301.361V58.9997Z" fill="black"/>
<path d="M325.67 33.9204C328.637 33.9204 331.039 36.287 331.039 39.2541V53.666C331.039 56.6331 328.637 58.9997 325.67 58.9997H310.233C307.266 58.9997 304.9 56.6331 304.9 53.666V39.2541C304.9 36.287 307.266 33.9204 310.233 33.9204H325.67ZM325.988 38.9362H309.916V53.9839H325.988V38.9362Z" fill="black"/>
<path d="M355.653 33.9204H360.705V55.75C360.705 57.5515 359.221 58.9997 357.42 58.9997H353.534C352.298 59.0351 351.203 58.3639 350.638 57.2689L340.888 38.9362H339.581V58.9997H334.566V37.2054C334.566 35.3686 336.014 33.9204 337.815 33.9204H341.913C343.114 33.9204 344.244 34.5562 344.809 35.6512L354.558 53.9839H355.653V33.9204Z" fill="black"/>
<mask id="mask0_1021_786" style="mask-type:luminance" maskUnits="userSpaceOnUse" x="0" y="1" width="66" height="59">
<path d="M65.3493 1.62695H0.5V59.7302H65.3493V1.62695Z" fill="white"/>
</mask>
<g mask="url(#mask0_1021_786)">
<path d="M65.0151 47.4371L54.31 58.9388C54.0773 59.1886 53.7957 59.3878 53.4828 59.524C53.1699 59.6601 52.8324 59.7303 52.4913 59.7301H1.74281C1.50066 59.7301 1.26379 59.6592 1.0613 59.5262C0.858808 59.3932 0.699517 59.2038 0.602999 58.9813C0.50648 58.7588 0.476938 58.513 0.518003 58.2739C0.559067 58.0348 0.668949 57.813 0.834148 57.6356L11.5475 46.134C11.7796 45.8848 12.0603 45.686 12.3722 45.5499C12.6841 45.4138 13.0205 45.3432 13.3607 45.3426H64.1064C64.3486 45.3427 64.5855 45.4135 64.788 45.5466C64.9905 45.6796 65.1497 45.869 65.2463 46.0914C65.3428 46.3139 65.3723 46.5598 65.3313 46.7989C65.2902 47.0379 65.1803 47.2598 65.0151 47.4371ZM54.31 24.2761C54.0773 24.0262 53.7957 23.827 53.4828 23.6909C53.1699 23.5548 52.8324 23.4846 52.4913 23.4848H1.74281C1.50066 23.4848 1.26379 23.5557 1.0613 23.6887C0.858808 23.8217 0.699517 24.0111 0.602999 24.2336C0.50648 24.456 0.476938 24.7019 0.518003 24.941C0.559067 25.1801 0.668949 25.4019 0.834148 25.5793L11.5475 37.0809C11.7796 37.3301 12.0603 37.5289 12.3722 37.665C12.6841 37.8011 13.0205 37.8717 13.3607 37.8722H64.1064C64.3486 37.8722 64.5855 37.8014 64.788 37.6683C64.9905 37.5353 65.1497 37.3459 65.2463 37.1234C65.3428 36.901 65.3723 36.6551 65.3313 36.416C65.2902 36.177 65.1803 35.9551 65.0151 35.7778L54.31 24.2761ZM1.74281 16.0144H52.4913C52.8324 16.0145 53.1699 15.9444 53.4828 15.8082C53.7957 15.6721 54.0773 15.4729 54.31 15.2231L65.0151 3.72143C65.1803 3.54407 65.2902 3.32223 65.3313 3.08316C65.3723 2.84409 65.3428 2.59822 65.2463 2.37574C65.1497 2.15326 64.9905 1.96388 64.788 1.83085C64.5855 1.69783 64.3486 1.62696 64.1064 1.62695H13.3607C13.0205 1.62753 12.6841 1.69806 12.3722 1.83417C12.0603 1.97028 11.7796 2.16908 11.5475 2.41826L0.83691 13.9199C0.67187 14.0971 0.562037 14.3187 0.520879 14.5575C0.479722 14.7963 0.509029 15.0419 0.605208 15.2643C0.701386 15.4867 0.860254 15.6761 1.06233 15.8093C1.2644 15.9426 1.5009 16.0138 1.74281 16.0144Z" fill="url(#paint0_linear_1021_786)"/>
</g>
</g>
<defs>
<linearGradient id="paint0_linear_1021_786" x1="5.97404" y1="61.1149" x2="59.2991" y2="1.10976" gradientUnits="userSpaceOnUse">
<stop offset="0.08" stop-color="#9945FF"/>
<stop offset="0.3" stop-color="#8752F3"/>
<stop offset="0.5" stop-color="#5497D5"/>
<stop offset="0.6" stop-color="#43B4CA"/>
<stop offset="0.72" stop-color="#28E0B9"/>
<stop offset="0.97" stop-color="#19FB9B"/>
</linearGradient>
<clipPath id="clip0_1021_786">
<rect width="372" height="61" fill="white" transform="translate(0.5)"/>
</clipPath>
</defs>
</svg>
